<svg xmlns="http://www.w3.org/2000/svg" viewBox="0 0 48 48" id="text-editor">
    <g data-name="Layer 2">
        <path stroke="#5025d1"
            d="M45,8H3A1,1,0,0,0,2,9V39a1,1,0,0,0,1,1H45a1,1,0,0,0,1-1V9A1,1,0,0,0,45,8ZM4,10H44v4H4ZM44,38H4V16H44Z">
        </path>
        <path stroke="#5025d1"
            d="M6 11H6a1 1 0 1 0 1 1A1 1 0 0 0 6 11zM9 11H9a1 1 0 1 0 1 1A1 1 0 0 0 9 11zM12 11h0a1 1 0 1 0 1 1A1 1 0 0 0 12 11zM28.2 33.6a1 1 0 0 0 .8.4 1 1 0 0 0 .6-.2l8-6a1 1 0 0 0 0-1.6l-8-6a1 1 0 0 0-1.2 1.6L35.33 27 28.4 32.2A1 1 0 0 0 28.2 33.6zM18.4 33.8a1 1 0 0 0 .6.2 1 1 0 0 0 .8-.4 1 1 0 0 0-.2-1.4L12.67 27l6.93-5.2a1 1 0 1 0-1.2-1.6l-8 6a1 1 0 0 0 0 1.6zM21.76 36A1 1 0 0 0 23 35.24l4-16A1 1 0 1 0 25 18.76l-4 16A1 1 0 0 0 21.76 36z">
        </path>
    </g>
</svg>