<?xml version="1.0" standalone="no"?>
<!DOCTYPE svg PUBLIC "-//W3C//DTD SVG 20010904//EN" "http://www.w3.org/TR/2001/REC-SVG-20010904/DTD/svg10.dtd">
<svg version="1.0" xmlns="http://www.w3.org/2000/svg" width="200.000000pt" height="200.000000pt"
    viewBox="0 0 200.000000 200.000000" preserveAspectRatio="xMidYMid meet">

    <g transform="translate(0.000000,200.000000) scale(0.100000,-0.100000)" fill="#5025d1" stroke="none">
        <path d="M0 1669 l0 -332 79 -146 c44 -80 90 -167 102 -193 18 -38 28 -48 48
-49 22 -1 22 -2 5 -6 -11 -2 -41 3 -65 11 -50 17 -60 16 -24 -4 14 -7 25 -17
25 -22 0 -12 -48 21 -60 41 -16 28 -12 -11 6 -54 22 -53 63 -102 99 -117 l30
-13 -55 -5 -55 -5 30 -16 c46 -25 95 -30 139 -15 62 22 68 36 61 146 -8 107
-6 111 69 146 75 36 52 60 -38 40 -34 -8 -53 -9 -49 -3 4 6 -2 8 -16 4 -22 -5
-22 -5 -5 14 18 20 81 25 134 10 20 -5 36 1 75 31 95 72 170 82 277 36 41 -18
59 -20 128 -14 64 6 80 5 80 -6 0 -20 -21 -38 -43 -38 -10 0 -15 -5 -12 -10 4
-6 16 -8 28 -6 13 4 10 0 -7 -8 -37 -17 -19 -28 24 -16 61 17 99 70 101 137
l1 38 12 -34 c15 -41 21 -35 35 41 5 31 17 72 25 92 21 50 110 141 168 173 57
31 58 40 2 17 -59 -25 -146 -90 -173 -129 -24 -36 -56 -49 -44 -18 5 14 1 13
-24 -5 -17 -12 -35 -22 -39 -22 -5 0 9 12 31 26 22 15 56 42 75 60 19 18 60
47 90 63 71 39 57 40 -20 1 -59 -30 -101 -41 -70 -19 12 9 11 10 -5 4 -44 -14
-105 -17 -139 -5 -50 16 -52 26 -4 21 38 -3 118 10 178 29 21 7 18 9 -20 9
-78 2 -24 19 85 27 l100 7 -45 12 c-63 16 -82 26 -40 21 57 -8 77 -14 102 -30
13 -8 28 -14 33 -13 6 1 11 -11 13 -26 3 -23 8 -28 25 -25 15 2 35 -10 64 -40
l41 -44 -8 37 c-5 20 -15 44 -24 54 -18 20 -21 41 -6 41 6 0 10 -4 10 -9 0
-11 61 -34 68 -26 7 7 62 -46 62 -59 0 -6 -12 3 -26 19 -18 21 -21 23 -10 5 9
-13 16 -38 16 -54 0 -29 -1 -29 -37 22 -20 29 -38 50 -41 48 -2 -3 3 -15 12
-28 21 -29 22 -60 1 -32 -14 19 -14 19 -9 -1 6 -24 -22 -65 -33 -50 -12 15
-50 34 -57 28 -9 -10 23 -61 41 -65 10 -2 33 4 51 14 l32 18 0 -36 c0 -19 4
-33 9 -30 5 3 12 -10 15 -29 4 -20 16 -56 26 -80 19 -44 19 -45 -2 -59 -23
-17 -38 -13 -38 10 0 23 -17 16 -24 -11 -8 -31 -16 -31 -39 1 -21 29 -14 44
38 76 17 10 25 18 19 18 -5 0 -19 -6 -29 -14 -23 -17 -31 -11 -91 68 -49 65
-57 65 -19 1 l24 -42 -39 7 c-44 8 -88 34 -97 56 -8 22 5 60 32 92 32 38 32
47 0 26 -28 -18 -95 -120 -95 -144 1 -8 7 -3 16 13 17 32 28 36 19 7 -5 -15
-3 -18 8 -14 13 5 15 -8 13 -83 -1 -73 -6 -98 -29 -145 -29 -58 -47 -158 -30
-158 5 0 17 15 27 33 9 17 14 23 11 12 -5 -20 -5 -20 10 -1 13 17 14 14 11
-35 -3 -62 -21 -103 -41 -95 -8 3 -17 1 -20 -4 -4 -6 -19 -10 -35 -10 -28 0
-29 2 -23 33 5 26 3 30 -8 20 -18 -17 -58 -16 -93 2 -25 13 -27 13 -16 0 7 -8
10 -23 8 -33 -4 -15 0 -17 22 -14 22 3 35 -5 74 -52 35 -40 66 -64 115 -87 96
-45 144 -88 176 -158 15 -32 38 -65 51 -71 20 -11 22 -18 17 -55 l-5 -42 46
-17 c54 -21 66 -19 55 9 -6 17 -8 17 -8 3 -1 -12 -6 -15 -17 -11 -12 4 -13 8
-3 13 8 6 2 13 -20 24 -43 23 -39 28 9 11 22 -8 40 -12 40 -10 0 3 -14 34 -32
70 -31 62 -51 80 -61 53 -6 -19 -31 5 -60 56 -21 37 -22 44 -9 52 10 7 12 17
8 31 -6 18 -11 20 -29 14 -34 -13 -157 62 -157 96 0 17 5 16 38 -4 l27 -17
-22 23 c-25 24 -30 47 -10 54 9 4 9 7 0 14 -10 7 -10 13 1 28 13 18 31 7 312
-181 165 -109 302 -201 307 -202 4 -2 7 339 7 757 l0 761 -1000 0 -1000 0 0
-331z m1348 -24 c35 -8 75 -21 90 -29 24 -13 25 -15 9 -21 -11 -5 -42 3 -79
20 -34 15 -73 31 -87 35 -46 14 2 10 67 -5z m-803 -294 c-3 -5 -31 -15 -63
-21 -40 -8 -67 -21 -91 -43 -27 -26 -31 -28 -22 -9 15 28 49 50 103 67 51 16
81 18 73 6z m103 -17 c32 -9 61 -20 66 -25 13 -12 8 -12 -70 7 -37 8 -79 13
-93 9 -25 -5 -25 -5 -7 10 25 19 35 19 104 -1z m456 -5 c-26 -29 -78 -65 -73
-51 4 10 78 71 88 72 2 0 -4 -9 -15 -21z m-137 5 c-3 -3 -12 -4 -19 -1 -8 3
-5 6 6 6 11 1 17 -2 13 -5z m-23 -50 c17 -7 24 -13 15 -14 -20 0 -69 37 -69
53 0 7 5 4 11 -6 6 -11 25 -25 43 -33z m136 -77 c-11 -30 -28 -61 -38 -69 -16
-12 -16 -11 -1 12 9 14 24 50 34 80 10 30 20 50 22 44 2 -6 -6 -36 -17 -67z
m57 31 c-3 -7 -5 -2 -5 12 0 14 2 19 5 13 2 -7 2 -19 0 -25z m400 4 c17 -15
18 -19 6 -30 -11 -11 -17 -10 -32 10 -30 37 -10 52 26 20z m-1278 -328 c2 -2
2 -7 -2 -10 -10 -10 -78 6 -71 17 5 9 62 3 73 -7z m62 -12 c0 -11 2 -12 6 -4
5 13 23 7 23 -9 0 -6 -4 -7 -10 -4 -5 3 -10 1 -10 -6 0 -17 -29 22 -30 39 0
19 20 4 21 -16z m1329 -464 c0 -16 -38 -8 -44 9 -9 23 15 35 31 15 7 -9 13
-20 13 -24z" />
        <path d="M1467 1492 c-9 -10 -19 -41 -22 -68 l-4 -49 13 53 c8 29 19 59 26 67
18 21 6 18 -13 -3z" />
        <path d="M996 873 c5 -66 4 -72 -15 -83 -43 -22 -146 8 -239 72 l-42 29 -6
-31 c-13 -61 -72 -77 -125 -33 -31 26 -31 26 -19 4 10 -20 6 -19 -30 10 -23
19 -48 45 -56 59 -12 23 -13 24 -14 4 0 -12 9 -42 20 -68 19 -43 24 -46 58
-46 37 -1 92 -36 92 -60 0 -34 -31 -66 -79 -82 l-51 -16 18 26 c32 46 36 58
12 35 -19 -18 -25 -20 -34 -8 -9 10 -16 7 -36 -18 -14 -17 -19 -28 -12 -24 17
11 15 -3 -4 -24 -9 -10 -22 -15 -30 -12 -25 9 -16 -37 13 -60 14 -12 56 -50
93 -84 67 -64 85 -73 93 -50 3 9 10 7 25 -7 l21 -19 -16 42 c-17 44 -20 46
-42 32 -10 -7 -29 4 -67 36 -52 45 -64 74 -21 52 21 -12 21 -11 4 8 -16 19
-16 20 1 36 10 9 35 23 55 32 21 9 40 23 43 33 13 41 45 102 53 102 14 0 51
-41 51 -57 0 -23 -26 -77 -43 -92 -20 -16 -22 -54 -4 -68 6 -6 35 -18 62 -27
28 -9 77 -32 110 -51 33 -20 68 -38 78 -41 12 -5 17 -17 17 -49 0 -42 1 -43
42 -53 24 -6 46 -8 50 -4 14 14 -21 108 -54 144 -25 27 -54 43 -116 64 -105
35 -114 46 -72 82 74 62 90 81 90 105 l0 25 83 -5 c45 -3 86 -9 91 -14 6 -5
17 -9 26 -9 20 0 221 -106 231 -122 5 -7 1 -20 -9 -31 -16 -18 -25 -19 -94 -2
-22 6 -29 3 -42 -23 -22 -42 -20 -48 12 -61 38 -15 99 -7 125 16 12 12 37 28
54 37 34 17 70 62 59 73 -3 3 -18 1 -32 -6 -23 -10 -30 -8 -63 21 -20 19 -71
52 -113 76 -82 45 -99 62 -90 95 5 21 5 21 -17 0 -21 -19 -50 -22 -51 -4 -1 3
-12 42 -26 86 l-24 80 6 -72z m-536 -288 c-7 -8 -19 -15 -26 -15 -8 0 -14 7
-14 15 0 10 10 15 26 15 22 0 25 -2 14 -15z" />
        <path d="M567 384 c-17 -17 -4 -44 39 -77 l45 -35 -53 -6 c-29 -3 -127 -8
-217 -11 -95 -3 -170 -10 -178 -17 -7 -6 -23 -8 -34 -5 -15 4 -19 3 -11 -5 6
-6 46 -13 89 -17 69 -7 75 -9 53 -19 -33 -14 -12 -15 66 -1 52 9 72 8 111 -5
75 -24 712 -49 699 -27 -10 15 334 25 421 12 42 -6 78 -9 81 -6 10 10 -22 35
-45 35 -14 0 -21 4 -18 10 4 6 -7 10 -26 10 -17 0 -47 9 -65 21 -52 32 -205
42 -557 37 l-309 -5 6 29 c10 52 -2 77 -37 76 l-30 -1 27 -24 c15 -12 24 -23
20 -23 -5 0 -22 14 -39 30 -17 17 -34 27 -38 24z" />
    </g>
</svg>